<?xml version="1.0" encoding="UTF-8"?>
<svg id="Capa_1" data-name="Capa 1" xmlns="http://www.w3.org/2000/svg" viewBox="0 0 197.26 30.64">
  <defs>
    <style>
      .cls-1 {
        fill: #4cb493;
      }

      .cls-2 {
        fill: #01485e;
      }
    </style>
  </defs>
  <g>
    <path class="cls-2" d="M60.87,6.58v-.15c0-2.48,1.35-5.4,4.83-5.4,2.72,0,4.41,1.73,4.58,3.69h-2.15c-.14-1.13-1.1-1.92-2.43-1.91-2.06.01-2.73,2.03-2.73,3.6v.17c0,1.62.68,3.57,2.73,3.59,1.34.02,2.31-.78,2.45-1.89h2.15c-.16,1.97-1.88,3.68-4.59,3.68-3.48,0-4.83-2.85-4.83-5.37Z"/>
    <path class="cls-2" d="M71.43,11.74V1.24h2.1v10.5h-2.1Z"/>
    <path class="cls-2" d="M74.95,11.74v-7.5h1.91v7.5h-1.91ZM75.07,3.28l.84-1.95h1.98l-1.19,1.95h-1.64Z"/>
    <path class="cls-2" d="M78.28,11.74v-7.5h2.12v.18c-.02.24-.08.45-.22.75l-.08.14.04.03.26-.32c.44-.6,1.17-.99,2.01-.99,1.82-.02,2.79,1.17,2.79,3.41v4.31h-2.12v-4.41c0-1.14-.39-1.76-1.28-1.76s-1.41.71-1.41,1.83v4.34h-2.12Z"/>
    <path class="cls-2" d="M86.68,3.11v-1.88h2.12v1.88h-2.12ZM86.68,11.74v-7.52h2.12v7.52h-2.12Z"/>
    <path class="cls-2" d="M90,8.23v-.53c0-2.13,1.53-3.66,3.69-3.68,2.06.01,3.57,1.31,3.6,3.12h-2.12c-.03-.93-.63-1.58-1.47-1.58-.95,0-1.58.81-1.58,1.89v1.04c0,1.05.62,1.89,1.56,1.89.84,0,1.46-.68,1.49-1.56h2.12c-.03,1.86-1.49,3.12-3.6,3.12-2.24,0-3.69-1.47-3.69-3.72Z"/>
    <path class="cls-2" d="M98.12,9.77c0-1.52,1.11-2.12,2.66-2.4l1.7-.3c.22-.05.35-.15.35-.33v-.08c0-.47-.48-.87-1.14-.87s-1.11.36-1.25.84h-2.09c.09-1.44,1.43-2.61,3.41-2.61s3.29.98,3.29,2.61v5.1h-1.95v-.27c0-.27.08-.5.18-.78l.12-.26-.03-.02-.27.42c-.5.8-1.58,1.11-2.49,1.11-1.47,0-2.48-.92-2.48-2.18ZM102.83,9.13v-.78l-1.62.33c-.66.13-.98.39-.98.92,0,.47.44.78,1.04.78.83,0,1.56-.5,1.56-1.25Z"/>
    <path class="cls-2" d="M109.49,6.58v-.15c0-2.48,1.35-5.4,4.83-5.4s4.8,2.93,4.8,5.4v.15c0,2.52-1.28,5.37-4.8,5.37s-4.83-2.85-4.83-5.37ZM117.03,6.58v-.17c0-1.58-.69-3.62-2.72-3.6-2.06.01-2.73,2.03-2.73,3.6v.17c0,1.62.67,3.57,2.73,3.59,2.03.02,2.72-1.97,2.72-3.59Z"/>
    <path class="cls-2" d="M120.74,11.75v-5.73h-.91v-1.79h.91v-.84c0-1.61.72-2.36,2.34-2.36.18,0,1.07.05,1.38.09v1.56c-.42-.08-.72-.08-.85-.08-.48,0-.75.2-.75.74v.89h1.55v1.79h-1.55v5.73h-2.12Z"/>
    <path class="cls-2" d="M124.77,9.77c0-1.52,1.11-2.12,2.66-2.4l1.7-.3c.23-.05.35-.15.35-.33v-.08c0-.47-.48-.87-1.14-.87s-1.11.36-1.25.84h-2.09c.09-1.44,1.43-2.61,3.41-2.61s3.29.98,3.29,2.61v5.1h-1.95v-.27c0-.27.08-.5.18-.78l.12-.26-.03-.02-.27.42c-.5.8-1.58,1.11-2.49,1.11-1.47,0-2.48-.92-2.48-2.18ZM129.48,9.13v-.78l-1.62.33c-.66.13-.98.39-.98.92,0,.47.44.78,1.04.78.83,0,1.56-.5,1.56-1.25Z"/>
    <path class="cls-2" d="M133.25,11.74V1.24h2.1v10.5h-2.1Z"/>
    <path class="cls-2" d="M136.91,11.74v-7.52h2.12v.15c-.02.26-.08.47-.23.77l-.08.14.05.03.26-.32c.44-.59,1.22-.96,1.97-.96,1.1,0,1.88.42,2.31,1.17h.04c.57-.81,1.44-1.17,2.39-1.17,1.8,0,2.76,1.19,2.76,3.36v4.35h-2.12v-4.46c0-.9-.36-1.71-1.2-1.71-.8,0-1.41.66-1.41,1.79v4.38h-2.13v-4.46c0-.9-.38-1.71-1.2-1.71s-1.41.66-1.41,1.79v4.38h-2.12Z"/>
    <path class="cls-2" d="M149.58,8.21v-.5c0-2.15,1.52-3.68,3.68-3.69,2.16.01,3.66,1.53,3.66,3.69v.5c0,2.27-1.44,3.74-3.66,3.74s-3.68-1.49-3.68-3.74ZM154.79,8.5v-1.02c0-1.04-.57-1.91-1.52-1.91s-1.56.86-1.56,1.91v1.02c0,1.01.57,1.89,1.55,1.89s1.53-.89,1.53-1.89Z"/>
    <path class="cls-2" d="M158.12,11.74V1.24h2.1v10.5h-2.1Z"/>
    <path class="cls-2" d="M161.42,8.21v-.5c0-2.15,1.52-3.68,3.68-3.69,2.16.01,3.66,1.53,3.66,3.69v.5c0,2.27-1.44,3.74-3.66,3.74s-3.68-1.49-3.68-3.74ZM166.62,8.5v-1.02c0-1.04-.57-1.91-1.52-1.91s-1.56.86-1.56,1.91v1.02c0,1.01.57,1.89,1.55,1.89s1.53-.89,1.53-1.89ZM164.25,3.28l.84-1.95h1.98l-1.19,1.95h-1.64Z"/>
    <path class="cls-2" d="M169.91,12.91l1.91-.32c.18.53.73.84,1.44.84.84,0,1.47-.59,1.47-1.37v-1.14h-.04c-.41.71-1.23,1.02-2.03,1.02-1.88,0-3.06-1.4-3.06-3.74v-.51c0-2.16,1.19-3.69,3.06-3.69.83,0,1.71.42,2.07,1.22l.21.45h.04s-.14-.41-.14-.41c-.07-.29-.12-.5-.12-.71v-.33h2.1v7.79c0,1.73-1.44,2.93-3.51,2.93-1.89,0-3.2-.96-3.41-2.04ZM174.7,8.36v-.77c0-1.23-.63-2.03-1.53-2.03-.84,0-1.46.8-1.46,2.12v.58c0,1.31.65,2.12,1.49,2.12.89,0,1.5-.8,1.5-2.03Z"/>
    <path class="cls-2" d="M178.37,3.11v-1.88h2.12v1.88h-2.12ZM178.37,11.74v-7.52h2.12v7.52h-2.12Z"/>
    <path class="cls-2" d="M181.68,8.23v-.53c0-2.13,1.53-3.66,3.69-3.68,2.06.01,3.57,1.31,3.6,3.12h-2.12c-.03-.93-.63-1.58-1.47-1.58-.95,0-1.58.81-1.58,1.89v1.04c0,1.05.62,1.89,1.56,1.89.84,0,1.46-.68,1.49-1.56h2.12c-.03,1.86-1.49,3.12-3.6,3.12-2.24,0-3.69-1.47-3.69-3.72Z"/>
    <path class="cls-2" d="M189.8,9.77c0-1.52,1.11-2.12,2.66-2.4l1.7-.3c.23-.05.35-.15.35-.33v-.08c0-.47-.48-.87-1.14-.87s-1.11.36-1.25.84h-2.09c.09-1.44,1.43-2.61,3.41-2.61s3.29.98,3.29,2.61v5.1h-1.95v-.27c0-.27.08-.5.18-.78l.12-.26-.03-.02-.27.42c-.5.8-1.58,1.11-2.49,1.11-1.47,0-2.48-.92-2.48-2.18ZM194.51,9.13v-.78l-1.62.33c-.66.13-.98.39-.98.92,0,.47.44.78,1.04.78.83,0,1.56-.5,1.56-1.25Z"/>
  </g>
  <g>
    <path class="cls-1" d="M62.07,30.36v-13.81h6.41c3.2,0,5.48,2.86,5.48,6.9s-2.29,6.9-5.48,6.9h-6.41ZM65.62,27.4h1.97c1.89,0,2.82-1.56,2.82-3.94s-.93-3.94-2.82-3.94h-1.97v7.89Z"/>
    <path class="cls-1" d="M75.84,30.36v-13.81h10.26v2.96h-6.71v2.47h6.11v2.96h-6.11v2.47h6.71v2.96h-10.26Z"/>
    <path class="cls-1" d="M92.19,25.71h3.55c.04,1.58.89,2.17,2.13,2.17s2.11-.45,2.11-1.46c0-.71-.63-1.12-2.11-1.54l-.91-.26c-3.12-.89-4.54-2.07-4.54-4.04,0-2.58,2.07-4.3,5.44-4.3,3.61,0,5.33,1.68,5.4,4.65h-3.55c-.02-1.26-.71-1.89-1.85-1.89s-1.89.43-1.89,1.16.3,1.18,1.89,1.68l.91.28c3.18.97,4.75,1.99,4.75,4.04,0,2.78-2.13,4.44-5.66,4.44s-5.6-1.87-5.68-4.93Z"/>
    <path class="cls-1" d="M105.46,30.36v-13.81h3.55v13.81h-3.55Z"/>
    <path class="cls-1" d="M111.42,30.36v-13.81h3.89l4.18,8.11h.12v-8.11h3.55v13.81h-3.89l-4.18-8.09h-.12v8.09h-3.55Z"/>
    <path class="cls-1" d="M125.13,23.58v-.2c0-3.21,1.83-7.1,6.59-7.1,3.81,0,6.05,2.45,6.25,5.01h-3.61c-.16-1.22-1.24-2.07-2.64-2.05-2.39.02-3.04,2.39-3.04,4.14v.2c0,1.76.65,4.08,3.04,4.1,1.4.02,2.48-.83,2.64-2.03h3.61c-.2,2.56-2.45,4.99-6.25,4.99-4.75,0-6.59-3.85-6.59-7.06Z"/>
    <path class="cls-1" d="M139.84,30.36v-13.81h10.26v2.96h-6.71v2.47h6.11v2.96h-6.11v2.47h6.71v2.96h-10.26Z"/>
    <path class="cls-1" d="M152.33,30.36v-13.81h3.55v10.85h6.23v2.96h-9.78Z"/>
    <path class="cls-1" d="M163.63,30.36v-13.81h10.26v2.96h-6.71v2.47h6.11v2.96h-6.11v2.47h6.71v2.96h-10.26Z"/>
    <path class="cls-1" d="M175.52,30.54v-3.16c.43.06.77.08,1.12.08,1.44,0,2.01-.53,2.01-1.79v-9.11h3.55v9.7c0,2.86-1.83,4.38-5.05,4.38-.59,0-1.16-.04-1.64-.1Z"/>
    <path class="cls-1" d="M184.18,23.58v-.2c0-3.21,1.83-7.1,6.59-7.1s6.49,3.89,6.49,7.1v.2c0,3.21-1.68,7.06-6.49,7.06s-6.59-3.85-6.59-7.06ZM193.77,23.58v-.2c0-1.76-.69-4.16-3-4.14-2.39.02-3.04,2.39-3.04,4.14v.2c0,1.76.65,4.08,3.04,4.1,2.31.02,3-2.35,3-4.1Z"/>
  </g>
  <g>
    <path class="cls-1" d="M32.92,22.75c.41.35.76.69,1.05,1.01.16.14.43.4.6.82.06.16.34.85,0,1.58-.25.53-.7.79-.87.87-1.14.6-3.6,1.69-6.82,1.52-4.83-.25-7.94-3.16-8.91-4.17-.8-.83-3.42-3.75-3.79-8.29-.18-2.26.26-4.1.62-5.21.08-.19.22-.6.15-1.12-.05-.36-.19-.64-.29-.79-.26-.34-.6-.71-1.01-1.09-.32-.29-.63-.53-.92-.73-.29-.17-.94-.5-1.82-.52-.74-.01-1.3.2-1.6.34-1.09.74-2.2,1.54-3.33,2.38-1.97,1.48-3.77,2.95-5.41,4.4-.09.1-.6.64-.55,1.45.03.53.28.91.4,1.05,1.46,1.4,3.39,3.14,5.81,4.97,1.32,1,3.37,2.54,6.27,4.19,2.42,1.38,4.89,2.78,8.47,3.78,3.56.99,6.28,1.05,6.86,1.05,3.02.04,5.24-.49,5.92-.66,1.5-.38,2.6-.84,3.5-1.22.39-.16.77-.37,1.53-.78.51-.28.71-.4.9-.64.1-.12.49-.61.38-1.25-.05-.32-.21-.55-.3-.67-.16-.15-.38-.37-.66-.64-.52-.51-1.8-1.75-2.56-2.54-.52-.54-.93-1.01-1.33-1.47-.22.35-.49.72-.81,1.08-.48.54-.98.96-1.46,1.3Z"/>
    <path class="cls-1" d="M55.1,14.84c-.07-.48-.34-.81-.47-.95-.2-.16-.4-.33-.6-.5-.7-.58-1.38-1.17-2.03-1.75-1.35-1.22-3.25-2.81-5.67-4.47-2.26-1.55-4.94-3.36-8.8-4.88C35,1.32,31.55,0,26.93,0c-3.5,0-6.04.75-6.75.97-1.83.57-3.29,1.3-4.31,1.9-.06.03-.78.39-.88,1.19-.07.53.18.93.26,1.04.27.27.53.55.8.82,1.53,1.48,2.78,2.81,3.73,3.89.25-.44.59-.9,1.06-1.34.51-.47,1.04-.78,1.51-.99-.5-.39-.93-.74-1.26-1.01-.09-.07-.33-.28-.52-.63-.05-.09-.43-.85-.11-1.64.12-.3.31-.49.43-.63.31-.33.65-.5.86-.58,1.11-.54,3.3-1.41,6.13-1.29,4.09.16,6.82,2.27,7.87,3.11.97.77,3.67,2.97,4.75,6.77.68,2.38.51,4.67.32,5.54-.29,1.32-.35,1.51-.35,1.51-.2.67-.37.99-.37,1.51,0,.46.14.84.26,1.08.11.15.22.3.35.45.5.61,1.03,1.07,1.51,1.42.26.17,1.08.66,2.2.56.86-.07,1.46-.46,1.73-.65,1.35-.89,2.77-1.9,4.23-3.04,1.5-1.17,2.86-2.33,4.08-3.45.07-.06.79-.74.65-1.68Z"/>
    <path class="cls-2" d="M27.73,7.66c-1.4,0-2.7.39-3.81,1.07-.96.58-1.76,1.38-2.36,2.33-.72,1.13-1.14,2.48-1.14,3.92,0,4.04,3.27,7.31,7.31,7.31,1.48,0,2.86-.44,4.01-1.2.88-.58,1.63-1.34,2.19-2.24.7-1.12,1.11-2.45,1.11-3.87,0-4.04-3.27-7.31-7.31-7.31Z"/>
  </g>
</svg>