<?xml version="1.0" encoding="UTF-8"?>
<svg id="Capa_2" data-name="Capa 2" xmlns="http://www.w3.org/2000/svg" viewBox="0 0 199.45 30.98">
  <defs>
    <style>
      .cls-1 {
        fill: #f0f0ee;
      }
    </style>
  </defs>
  <g id="Capa_1-2" data-name="Capa 1">
    <g>
      <g>
        <path class="cls-1" d="M61.55,6.65v-.15c0-2.5,1.37-5.46,4.88-5.46,2.75,0,4.46,1.74,4.63,3.73h-2.17c-.14-1.14-1.11-1.94-2.46-1.93-2.08.02-2.76,2.05-2.76,3.64v.17c0,1.64.68,3.61,2.76,3.63,1.35.02,2.34-.79,2.47-1.91h2.17c-.17,1.99-1.9,3.72-4.64,3.72-3.52,0-4.88-2.88-4.88-5.43Z"/>
        <path class="cls-1" d="M72.22,11.87V1.25h2.12v10.62h-2.12Z"/>
        <path class="cls-1" d="M75.79,11.87v-7.58h1.93v7.58h-1.93ZM75.91,3.32l.85-1.97h2l-1.2,1.97h-1.65Z"/>
        <path class="cls-1" d="M79.16,11.87v-7.58h2.14v.18c-.02.24-.08.46-.23.76l-.08.14.05.03.26-.32c.44-.61,1.18-1,2.03-1,1.84-.02,2.82,1.18,2.82,3.44v4.35h-2.14v-4.46c0-1.15-.39-1.77-1.29-1.77s-1.43.71-1.43,1.85v4.38h-2.14Z"/>
        <path class="cls-1" d="M87.65,3.15v-1.9h2.14v1.9h-2.14ZM87.65,11.87v-7.6h2.14v7.6h-2.14Z"/>
        <path class="cls-1" d="M91,8.32v-.53c0-2.15,1.55-3.7,3.73-3.72,2.08.02,3.61,1.32,3.64,3.16h-2.14c-.03-.94-.64-1.59-1.49-1.59-.96,0-1.59.82-1.59,1.91v1.05c0,1.06.62,1.91,1.58,1.91.85,0,1.47-.68,1.5-1.58h2.14c-.03,1.88-1.5,3.16-3.64,3.16-2.26,0-3.73-1.49-3.73-3.76Z"/>
        <path class="cls-1" d="M99.21,9.88c0-1.53,1.12-2.14,2.68-2.43l1.71-.3c.23-.05.35-.15.35-.33v-.08c0-.47-.49-.88-1.15-.88s-1.12.36-1.26.85h-2.11c.09-1.46,1.44-2.64,3.44-2.64s3.32.99,3.32,2.64v5.16h-1.97v-.27c0-.27.08-.5.18-.79l.12-.26-.03-.02-.27.42c-.5.8-1.59,1.12-2.52,1.12-1.49,0-2.5-.93-2.5-2.2ZM103.97,9.23v-.79l-1.64.33c-.67.14-.99.39-.99.93,0,.47.44.79,1.05.79.83,0,1.58-.5,1.58-1.26Z"/>
        <path class="cls-1" d="M110.71,6.65v-.15c0-2.5,1.37-5.46,4.88-5.46s4.85,2.96,4.85,5.46v.15c0,2.55-1.29,5.43-4.85,5.43s-4.88-2.88-4.88-5.43ZM118.34,6.65v-.17c0-1.59-.7-3.66-2.75-3.64-2.08.02-2.76,2.05-2.76,3.64v.17c0,1.64.68,3.61,2.76,3.63,2.05.02,2.75-1.99,2.75-3.63Z"/>
        <path class="cls-1" d="M122.08,11.89v-5.79h-.93v-1.81h.93v-.85c0-1.62.73-2.38,2.37-2.38.18,0,1.08.05,1.4.09v1.58c-.42-.08-.73-.08-.86-.08-.49,0-.76.2-.76.74v.89h1.56v1.81h-1.56v5.79h-2.14Z"/>
        <path class="cls-1" d="M126.16,9.88c0-1.53,1.12-2.14,2.69-2.43l1.71-.3c.23-.05.35-.15.35-.33v-.08c0-.47-.49-.88-1.15-.88s-1.12.36-1.26.85h-2.11c.09-1.46,1.44-2.64,3.44-2.64s3.32.99,3.32,2.64v5.16h-1.97v-.27c0-.27.08-.5.18-.79l.12-.26-.03-.02-.27.42c-.5.8-1.59,1.12-2.52,1.12-1.49,0-2.5-.93-2.5-2.2ZM130.92,9.23v-.79l-1.64.33c-.67.14-.99.39-.99.93,0,.47.44.79,1.05.79.83,0,1.58-.5,1.58-1.26Z"/>
        <path class="cls-1" d="M134.73,11.87V1.25h2.12v10.62h-2.12Z"/>
        <path class="cls-1" d="M138.43,11.87v-7.6h2.14v.15c-.02.26-.08.47-.23.77l-.08.14.05.03.26-.32c.44-.59,1.23-.97,1.99-.97,1.11,0,1.9.42,2.34,1.18h.05c.58-.82,1.46-1.18,2.41-1.18,1.82,0,2.79,1.2,2.79,3.4v4.4h-2.14v-4.51c0-.91-.36-1.73-1.21-1.73-.8,0-1.43.67-1.43,1.81v4.43h-2.15v-4.51c0-.91-.38-1.73-1.21-1.73s-1.43.67-1.43,1.81v4.43h-2.14Z"/>
        <path class="cls-1" d="M151.25,8.31v-.5c0-2.17,1.53-3.72,3.72-3.73,2.18.02,3.7,1.55,3.7,3.73v.5c0,2.29-1.46,3.78-3.7,3.78s-3.72-1.5-3.72-3.78ZM156.51,8.59v-1.03c0-1.05-.58-1.93-1.53-1.93s-1.58.86-1.58,1.93v1.03c0,1.02.58,1.91,1.56,1.91s1.55-.89,1.55-1.91Z"/>
        <path class="cls-1" d="M159.88,11.87V1.25h2.12v10.62h-2.12Z"/>
        <path class="cls-1" d="M163.22,8.31v-.5c0-2.17,1.53-3.72,3.72-3.73,2.18.02,3.7,1.55,3.7,3.73v.5c0,2.29-1.46,3.78-3.7,3.78s-3.72-1.5-3.72-3.78ZM168.48,8.59v-1.03c0-1.05-.58-1.93-1.53-1.93s-1.58.86-1.58,1.93v1.03c0,1.02.58,1.91,1.56,1.91s1.55-.89,1.55-1.91ZM166.08,3.32l.85-1.97h2l-1.2,1.97h-1.65Z"/>
        <path class="cls-1" d="M171.8,13.05l1.93-.32c.18.53.74.85,1.46.85.85,0,1.49-.59,1.49-1.38v-1.15h-.05c-.41.71-1.24,1.03-2.05,1.03-1.9,0-3.09-1.41-3.09-3.78v-.52c0-2.18,1.2-3.73,3.09-3.73.83,0,1.73.42,2.09,1.23l.21.46.05-.02-.14-.39c-.08-.29-.12-.5-.12-.71v-.33h2.12v7.87c0,1.74-1.46,2.96-3.55,2.96-1.91,0-3.23-.97-3.44-2.06ZM176.64,8.46v-.77c0-1.24-.64-2.05-1.55-2.05-.85,0-1.47.8-1.47,2.14v.59c0,1.32.65,2.14,1.5,2.14.89,0,1.52-.8,1.52-2.05Z"/>
        <path class="cls-1" d="M180.36,3.15v-1.9h2.14v1.9h-2.14ZM180.36,11.87v-7.6h2.14v7.6h-2.14Z"/>
        <path class="cls-1" d="M183.71,8.32v-.53c0-2.15,1.55-3.7,3.73-3.72,2.08.02,3.61,1.32,3.64,3.16h-2.14c-.03-.94-.64-1.59-1.49-1.59-.96,0-1.59.82-1.59,1.91v1.05c0,1.06.62,1.91,1.58,1.91.85,0,1.47-.68,1.5-1.58h2.14c-.03,1.88-1.5,3.16-3.64,3.16-2.26,0-3.73-1.49-3.73-3.76Z"/>
        <path class="cls-1" d="M191.91,9.88c0-1.53,1.12-2.14,2.69-2.43l1.71-.3c.23-.05.35-.15.35-.33v-.08c0-.47-.49-.88-1.15-.88s-1.12.36-1.26.85h-2.11c.09-1.46,1.44-2.64,3.44-2.64s3.32.99,3.32,2.64v5.16h-1.97v-.27c0-.27.08-.5.18-.79l.12-.26-.03-.02-.27.42c-.5.8-1.59,1.12-2.52,1.12-1.49,0-2.5-.93-2.5-2.2ZM196.68,9.23v-.79l-1.64.33c-.67.14-.99.39-.99.93,0,.47.44.79,1.05.79.83,0,1.58-.5,1.58-1.26Z"/>
      </g>
      <g>
        <path class="cls-1" d="M62.76,30.7v-13.96h6.48c3.23,0,5.54,2.89,5.54,6.98s-2.31,6.98-5.54,6.98h-6.48ZM66.35,27.71h1.99c1.91,0,2.85-1.58,2.85-3.99s-.94-3.99-2.85-3.99h-1.99v7.98Z"/>
        <path class="cls-1" d="M76.68,30.7v-13.96h10.37v2.99h-6.78v2.49h6.18v2.99h-6.18v2.49h6.78v2.99h-10.37Z"/>
        <path class="cls-1" d="M93.22,25.99h3.59c.04,1.6.9,2.19,2.15,2.19s2.13-.46,2.13-1.48c0-.72-.64-1.14-2.13-1.56l-.92-.26c-3.15-.9-4.59-2.09-4.59-4.09,0-2.61,2.09-4.35,5.5-4.35,3.65,0,5.38,1.7,5.46,4.71h-3.59c-.02-1.28-.72-1.91-1.87-1.91s-1.91.44-1.91,1.18.3,1.2,1.91,1.7l.92.28c3.21.98,4.81,2.01,4.81,4.09,0,2.81-2.15,4.49-5.72,4.49s-5.66-1.89-5.74-4.99Z"/>
        <path class="cls-1" d="M106.64,30.7v-13.96h3.59v13.96h-3.59Z"/>
        <path class="cls-1" d="M112.66,30.7v-13.96h3.93l4.23,8.2h.12v-8.2h3.59v13.96h-3.93l-4.23-8.18h-.12v8.18h-3.59Z"/>
        <path class="cls-1" d="M126.52,23.84v-.2c0-3.25,1.85-7.18,6.66-7.18,3.85,0,6.12,2.47,6.32,5.07h-3.65c-.16-1.24-1.26-2.09-2.67-2.07-2.41.02-3.07,2.41-3.07,4.19v.2c0,1.77.66,4.13,3.07,4.15,1.42.02,2.51-.84,2.67-2.05h3.65c-.2,2.59-2.47,5.05-6.32,5.05-4.81,0-6.66-3.89-6.66-7.14Z"/>
        <path class="cls-1" d="M141.4,30.7v-13.96h10.37v2.99h-6.78v2.49h6.18v2.99h-6.18v2.49h6.78v2.99h-10.37Z"/>
        <path class="cls-1" d="M154.02,30.7v-13.96h3.59v10.97h6.3v2.99h-9.89Z"/>
        <path class="cls-1" d="M165.45,30.7v-13.96h10.37v2.99h-6.78v2.49h6.18v2.99h-6.18v2.49h6.78v2.99h-10.37Z"/>
        <path class="cls-1" d="M177.48,30.88v-3.19c.44.06.78.08,1.14.08,1.46,0,2.03-.54,2.03-1.81v-9.21h3.59v9.81c0,2.89-1.85,4.43-5.11,4.43-.6,0-1.18-.04-1.65-.1Z"/>
        <path class="cls-1" d="M186.23,23.84v-.2c0-3.25,1.85-7.18,6.66-7.18s6.56,3.93,6.56,7.18v.2c0,3.25-1.69,7.14-6.56,7.14s-6.66-3.89-6.66-7.14ZM195.92,23.84v-.2c0-1.77-.7-4.21-3.03-4.19-2.41.02-3.07,2.41-3.07,4.19v.2c0,1.77.66,4.13,3.07,4.15,2.33.02,3.03-2.37,3.03-4.15Z"/>
      </g>
      <g>
        <path class="cls-1" d="M33.28,23c.41.35.77.7,1.06,1.02.16.14.43.41.6.83.06.16.35.86,0,1.6-.26.54-.71.8-.88.88-1.15.6-3.64,1.7-6.9,1.53-4.89-.26-8.03-3.2-9.01-4.22-.81-.84-3.46-3.8-3.83-8.38-.19-2.28.26-4.14.62-5.27.08-.19.23-.61.15-1.13-.05-.37-.19-.64-.29-.8-.27-.34-.6-.72-1.02-1.1-.32-.29-.64-.54-.93-.74-.3-.18-.95-.51-1.84-.53-.74-.01-1.32.2-1.62.34-1.1.75-2.23,1.55-3.37,2.41-1.99,1.49-3.81,2.99-5.47,4.45-.09.1-.6.65-.56,1.47.03.54.29.92.4,1.07,1.47,1.42,3.43,3.17,5.87,5.02,1.34,1.01,3.4,2.57,6.34,4.23,2.45,1.39,4.94,2.81,8.56,3.82,3.6,1,6.35,1.06,6.94,1.07,3.05.04,5.3-.49,5.98-.66,1.52-.38,2.63-.85,3.54-1.24.39-.17.78-.37,1.55-.79.52-.28.72-.4.91-.65.1-.12.49-.62.39-1.27-.05-.32-.21-.55-.31-.68-.16-.15-.39-.37-.66-.64-.53-.52-1.82-1.76-2.59-2.57-.52-.54-.94-1.02-1.34-1.49-.22.35-.49.72-.82,1.1-.48.55-.99.97-1.47,1.31Z"/>
        <path class="cls-1" d="M55.71,15.01c-.08-.49-.35-.82-.48-.96-.2-.17-.41-.33-.61-.5-.71-.59-1.39-1.18-2.05-1.77-1.37-1.23-3.29-2.84-5.74-4.52-2.28-1.56-4.99-3.4-8.9-4.93C35.39,1.34,31.9,0,27.23,0c-3.54,0-6.1.76-6.83.98-1.85.58-3.33,1.32-4.36,1.92-.06.03-.79.4-.89,1.2-.07.53.19.94.26,1.05.27.28.54.55.81.83,1.55,1.49,2.81,2.84,3.78,3.93.25-.44.6-.91,1.07-1.35.51-.47,1.05-.79,1.53-1-.5-.4-.94-.74-1.27-1.02-.09-.07-.34-.28-.52-.63-.05-.1-.44-.86-.11-1.66.13-.3.31-.5.44-.63.32-.33.66-.5.87-.59,1.12-.54,3.34-1.42,6.19-1.31,4.13.16,6.9,2.3,7.96,3.14.98.78,3.71,3,4.8,6.85.68,2.41.52,4.73.33,5.61-.29,1.33-.35,1.53-.35,1.53-.21.68-.38,1-.37,1.53,0,.47.15.85.26,1.09.11.15.22.3.35.46.5.61,1.04,1.08,1.53,1.44.26.17,1.09.67,2.22.57.87-.08,1.48-.46,1.74-.65,1.36-.9,2.8-1.92,4.28-3.08,1.52-1.18,2.89-2.36,4.12-3.49.07-.06.8-.75.65-1.7Z"/>
        <path class="cls-1" d="M28.04,7.75c-1.41,0-2.73.4-3.85,1.08-.97.59-1.78,1.4-2.39,2.35-.73,1.15-1.15,2.5-1.15,3.96,0,4.08,3.31,7.4,7.4,7.4,1.5,0,2.89-.45,4.06-1.21.89-.59,1.65-1.36,2.22-2.27.71-1.14,1.12-2.48,1.12-3.92,0-4.08-3.31-7.4-7.4-7.4Z"/>
      </g>
    </g>
  </g>
</svg>